<svg width="215" height="101" viewBox="0 0 215 101" fill="none" xmlns="http://www.w3.org/2000/svg">
<path d="M5.07031 5.07031C10.4974 -0.356785 19.2965 -0.356786 24.7236 5.07031L59.918 40.2646C65.3447 45.6918 65.3449 54.491 59.918 59.918L24.7236 95.1113C19.2965 100.538 10.4974 100.538 5.07031 95.1113C-0.356631 89.6842 -0.356733 80.8851 5.07031 75.458L29.7305 50.7979C30.121 50.4073 30.121 49.7743 29.7305 49.3838L5.07031 24.7236C-0.356785 19.2965 -0.356785 10.4974 5.07031 5.07031Z" stroke="#59B5F7" stroke-width="2" stroke-linecap="round" stroke-linejoin="round"/>
<path d="M80.0764 5.07031C85.5035 -0.356785 94.3026 -0.356786 99.7297 5.07031L134.924 40.2646C140.351 45.6918 140.351 54.491 134.924 59.918L99.7297 95.1113C94.3026 100.538 85.5035 100.538 80.0764 95.1113C74.6495 89.6842 74.6494 80.8851 80.0764 75.458L104.737 50.7979C105.127 50.4073 105.127 49.7743 104.737 49.3838L80.0764 24.7236C74.6493 19.2965 74.6493 10.4974 80.0764 5.07031Z" stroke="#305CDE" stroke-width="2" stroke-linecap="round" stroke-linejoin="round"/>
<path d="M155.082 5.07031C160.509 -0.356785 169.309 -0.356786 174.736 5.07031L209.93 40.2646C215.357 45.6918 215.357 54.491 209.93 59.918L174.736 95.1113C169.309 100.538 160.509 100.538 155.082 95.1113C149.655 89.6842 149.655 80.8851 155.082 75.458L179.743 50.7979C180.133 50.4073 180.133 49.7743 179.743 49.3838L155.082 24.7236C149.655 19.2965 149.655 10.4974 155.082 5.07031Z" stroke="#FF5B1A" stroke-width="2" stroke-linecap="round" stroke-linejoin="round"/>
</svg>
